Coordinates
version=1
nRows=20
nColumns=32
inDegrees=yes

Units are S.I. units (second, meters, Newtons, ...)
If the header above contains a line with 'inDegrees', this indicates whether rotational values are in degrees (yes) or radians (no).

endheader
time	pelvis_tilt	pelvis_list	pelvis_rotation	pelvis_tx	pelvis_ty	pelvis_tz	hip_flexion_r	hip_adduction_r	hip_rotation_r	knee_angle_r	knee_adduction_r	med_cond_adduction_r	lat_cond_adduction_r	patella_r_constrained_knee_angle	ankle_angle_r	subtalar_angle_r	mtp_angle_r	hip_flexion_l	hip_adduction_l	hip_rotation_l	knee_angle_l	knee_adduction_l	med_cond_adduction_l	lat_cond_adduction_l	patella_l_constrained_knee_angle	ankle_angle_l	subtalar_angle_l	mtp_angle_l	lumbar_extension	lumbar_bending	lumbar_rotation
      0.88500000	     -8.88818585	      3.09583520	     -2.65573681	      0.22309865	      0.88567100	     -1.21240353	     24.29069307	    -26.53549404	    -21.90185453	    -26.48549294	      2.64457630	      0.00000000	      0.00000000	     -0.46225906	     -1.80129420	      3.66380656	      0.00000000	     21.04434105	    -20.90113605	    -36.09032719	    -24.70400341	     -2.00250995	      0.00000000	      0.00000000	     -0.43116620	     -0.58988919	     17.89364150	      0.00000000	     -1.85058500	     -2.19122966	      1.75163308
      0.89000000	     -9.05770286	      2.84088053	     -2.62946946	      0.22208282	      0.88422801	     -1.21237756	     24.80511565	    -26.40761054	    -21.71938521	    -27.10605142	      2.72743510	      0.00000000	      0.00000000	     -0.47308984	     -1.57269548	      3.58354752	      0.00000000	     21.71540205	    -21.54461536	    -35.79127730	    -25.66806283	     -1.82709375	      0.00000000	     -0.00000000	     -0.44799221	     -0.27392977	     17.89221892	      0.00000000	     -1.91212151	     -2.02309098	      1.48463001
      0.89500000	     -9.45537679	      3.12913660	     -2.79990814	      0.22089420	      0.88206055	     -1.21187523	     26.04368213	    -26.83078239	    -20.91598146	    -28.14272402	      2.90199283	      0.00000000	      0.00000000	     -0.49118319	     -1.13452306	      3.58578180	     -0.00000000	     22.47617277	    -21.61058018	    -35.86255136	    -26.46622544	     -1.81382096	     -0.00000000	     -0.00000000	     -0.46192277	      0.04215243	     17.86266608	     -0.00000000	     -1.69547666	     -2.03473459	      2.33316065
      0.90000000	     -9.74520240	      2.95682755	     -2.83903729	      0.21972677	      0.88020765	     -1.21171595	     26.81687898	    -26.76155629	    -20.53864122	    -28.86490117	      3.02359800	     -0.00000000	     -0.00000000	     -0.50378756	     -0.90675983	      3.36839854	     -0.00000000	     23.27687732	    -22.19649177	    -35.60870952	    -27.45054785	     -1.67584016	     -0.00000000	      0.00000000	     -0.47910244	      0.40522829	     17.87465777	     -0.00000000	     -1.61864580	     -1.93889620	      2.17484833
      0.90500000	    -10.02932098	      2.88715539	     -2.89109608	      0.21857973	      0.87824949	     -1.21150544	     27.65289912	    -26.81869548	    -20.12003357	    -29.66535520	      3.15399930	      0.00000000	      0.00000000	     -0.51775812	     -0.59460549	      3.30353142	      0.00000000	     24.03780502	    -22.65049938	    -35.38286469	    -28.36901244	     -1.55588634	      0.00000000	      0.00000000	     -0.49513267	      0.74885696	     17.87360692	     -0.00000000	     -1.55361731	     -1.78560821	      2.37026514
      0.91000000	    -10.27963240	      2.95166646	     -2.91430992	      0.21743162	      0.87630699	     -1.21139249	     28.47156409	    -27.06833413	    -19.62350993	    -30.47419396	      3.37843872	      0.00000000	      0.00000000	     -0.53187502	     -0.29516386	      3.20237641	      0.00000000	     24.74346484	    -22.91107926	    -35.18205827	    -29.22291491	     -1.47164937	     -0.00000000	     -0.00000000	     -0.51003608	      1.06883339	     17.84366902	      0.00000000	     -1.50711766	     -1.92622415	      2.31804147
      0.91500000	    -10.55426919	      2.75580463	     -2.98717471	      0.21627181	      0.87427449	     -1.21114617	     29.25112884	    -26.96016612	    -19.28511869	    -31.22833136	      3.47057757	      0.00000000	      0.00000000	     -0.54503720	     -0.01884622	      3.12841989	      0.00000000	     25.52885722	    -23.56817546	    -34.90088994	    -30.24248793	     -1.26815117	      0.00000000	      0.00000000	     -0.52783099	      1.43977977	     17.83980152	      0.00000000	     -1.45913998	     -1.67223284	      2.42573483
      0.92000000	    -10.83297169	      2.66143197	     -3.05888371	      0.21509919	      0.87215268	     -1.21088353	     30.09111689	    -26.97551912	    -18.89195316	    -32.03308055	      3.58836639	      0.00000000	      0.00000000	     -0.55908273	      0.26942068	      3.06122833	     -0.00000000	     26.28874045	    -24.08090577	    -34.64302735	    -31.18244685	     -1.10146178	     -0.00000000	     -0.00000000	     -0.54423637	      1.78191121	     17.83264401	     -0.00000000	     -1.39347200	     -1.56027610	      2.51623486
      0.92500000	    -11.08702955	      2.57571370	     -3.11893514	      0.21393259	      0.87003744	     -1.21066505	     30.89089342	    -27.01193213	    -18.51612947	    -32.82642617	      3.71733298	     -0.00000000	     -0.00000000	     -0.57292922	      0.57308934	      3.01867734	     -0.00000000	     27.02895941	    -24.57180112	    -34.36584676	    -32.11422128	     -0.93500248	     -0.00000000	     -0.00000000	     -0.56049890	      2.11383814	     17.81893690	     -0.00000000	     -1.35377446	     -1.49596364	      2.52611505
      0.93000000	    -11.35680297	      2.47753222	     -3.18518282	      0.21275093	      0.86782975	     -1.21041240	     31.71543094	    -27.02403872	    -18.15778461	    -33.63004088	      3.82450332	     -0.00000000	      0.00000000	     -0.58695494	      0.88193297	      2.98601527	     -0.00000000	     27.79198688	    -25.07849563	    -34.06190072	    -33.04655238	     -0.76432705	      0.00000000	      0.00000000	     -0.57677115	      2.45821846	     17.81019302	      0.00000000	     -1.29637765	     -1.40046904	      2.58102059
      0.93500000	    -11.58510391	      2.47364416	     -3.25168912	      0.21158965	      0.86567405	     -1.21018992	     32.52298378	    -27.15094936	    -17.73125000	    -34.43106574	      3.98309065	     -0.00000000	     -0.00000000	     -0.60093546	      1.16797821	      2.93264122	      0.00000000	     28.47520577	    -25.45995260	    -33.83201890	    -33.91489451	     -0.61878237	      0.00000000	     -0.00000000	     -0.59192657	      2.76070831	     17.79095291	     -0.00000000	     -1.29177765	     -1.39006412	      2.67801264
      0.94000000	    -11.85474426	      2.38786941	     -3.33507371	      0.21040202	      0.86335864	     -1.20991957	     33.36590132	    -27.15743212	    -17.36374445	    -35.23168361	      4.07533668	      0.00000000	      0.00000000	     -0.61490888	      1.46771440	      2.95984865	     -0.00000000	     29.23455513	    -25.96484886	    -33.55798610	    -34.84253351	     -0.45207406	     -0.00000000	     -0.00000000	     -0.60811693	      3.09568623	     17.78306883	     -0.00000000	     -1.23170639	     -1.33131809	      2.70457001
      0.94500000	    -12.13123804	      2.32277796	     -3.43545599	      0.20915583	      0.86100335	     -1.20956082	     34.25101322	    -27.16932482	    -17.01189178	    -36.06508791	      4.15195587	     -0.00000000	     -0.00000000	     -0.62945453	      1.78856131	      2.94511348	      0.00000000	     29.99328403	    -26.45637282	    -33.29584158	    -35.75320456	     -0.28303765	      0.00000000	      0.00000000	     -0.62401114	      3.40214531	     17.77867892	      0.00000000	     -1.18232759	     -1.23477857	      2.86116037
      0.95000000	    -12.32048908	      2.31573420	     -3.49482749	      0.20805734	      0.85878578	     -1.20931298	     35.01424303	    -27.27750747	    -16.64349084	    -36.86774324	      4.24442889	      0.00000000	      0.00000000	     -0.64346351	      2.09996748	      2.99675940	      0.00000000	     30.61933660	    -26.83371381	    -33.04798711	    -36.58438520	     -0.12524797	      0.00000000	      0.00000000	     -0.63851798	      3.70773478	     17.77751477	      0.00000000	     -1.19509821	     -1.27426439	      2.87860866
      0.95500000	    -12.51821063	      2.12731693	     -3.54668551	      0.20691404	      0.85655359	     -1.20913670	     35.67563588	    -27.18858259	    -16.44306359	    -37.58188665	      4.29472665	     -0.00000000	     -0.00000000	     -0.65592766	      2.35609316	      3.06429919	      0.00000000	     31.33227870	    -27.41148935	    -32.64607418	    -37.47939601	      0.07523980	     -0.00000000	     -0.00000000	     -0.65413886	      4.03120276	     17.77890441	      0.00000000	     -1.22866303	     -1.11734137	      2.81804236
      0.96000000	    -12.75755040	      2.06188102	     -3.66726175	      0.20573715	      0.85414698	     -1.20880251	     36.50986918	    -27.16871448	    -16.07000532	    -38.36177327	      4.34137958	     -0.00000000	     -0.00000000	     -0.66953925	      2.61336551	      3.08422292	      0.00000000	     32.03595528	    -27.89645489	    -32.44536708	    -38.35967467	      0.20073211	     -0.00000000	     -0.00000000	     -0.66950262	      4.31873078	     17.81148110	      0.00000000	     -1.19541550	     -1.06134927	      2.91922966
      0.96500000	    -13.02137445	      2.21186198	     -3.73337347	      0.20451794	      0.85162832	     -1.20847285	     37.48022198	    -27.41392996	    -15.59171168	    -39.25780235	      4.44051561	     -0.00000000	     -0.00000000	     -0.68517791	      2.98465479	      3.12438446	      0.00000000	     32.72592471	    -28.08178405	    -32.27225385	    -39.13136378	      0.28128601	     -0.00000000	     -0.00000000	     -0.68297114	      4.60331957	     17.79915709	     -0.00000000	     -1.14024808	     -1.16590038	      3.20283534
      0.97000000	    -13.12956281	      1.62761567	     -3.66613872	      0.20349056	      0.84959412	     -1.20867677	     37.72162957	    -26.97932766	    -15.99591401	    -39.78669736	      4.28782398	      0.00000000	      0.00000000	     -0.69440887	      3.21045070	      3.26162808	     -0.00000000	     33.55068284	    -29.00075893	    -31.50821045	    -40.13512088	      0.53537330	      0.00000000	      0.00000000	     -0.70049001	      4.93029745	     17.82213358	      0.00000000	     -1.28360529	     -0.80929106	      2.41625782
      0.97500000	    -13.43321590	      2.21973977	     -3.88389761	      0.20220357	      0.84685086	     -1.20795905	     39.07834532	    -27.56697786	    -14.88566519	    -40.81967046	      4.54674154	      0.00000000	      0.00000000	     -0.71243765	      3.55436597	      3.26459362	     -0.00000000	     34.04088455	    -28.77647367	    -31.85891670	    -40.73117813	      0.45014058	     -0.00000000	     -0.00000000	     -0.71089317	      5.16007050	     17.83809409	      0.00000000	     -1.15421702	     -1.25234390	      3.28674144
      0.98000000	    -13.56087810	      1.79328055	     -3.89228117	      0.20114814	      0.84468938	     -1.20790509	     39.47395151	    -27.22648686	    -15.05727193	    -41.41217159	      4.42488483	      0.00000000	      0.00000000	     -0.72277874	      3.79120558	      3.34363062	     -0.00000000	     34.78349912	    -29.55766043	    -31.23171926	    -41.63752815	      0.68400656	      0.00000000	      0.00000000	     -0.72671196	      5.44920587	     17.87995561	      0.00000000	     -1.28412294	     -0.84903310	      3.04066282
